<svg xmlns="http://www.w3.org/2000/svg" width="256" height="256"><path fill="#1976D2" fill-opacity=".016" fill-rule="evenodd" d="M0 128.004v128.004l128.25-.254 128.25-.254.254-127.75L257.008 0H0v128.004m.485.496c0 70.4.119 99.053.265 63.672.146-35.38.146-92.98 0-128C.604 29.153.485 58.1.485 128.5"/><path fill="#1976D2" fill-opacity=".215" fill-rule="evenodd" d="M0 128.004v128.004l128.25-.254 128.25-.254.254-127.75L257.008 0H0v128.004m.485.496c0 70.4.119 99.053.265 63.672.146-35.38.146-92.98 0-128C.604 29.153.485 58.1.485 128.5m170.67-115.896C168.135 14.719 168.015 22 171 22c1.285 0 2-.667 2-1.865 0-1.026.914-3.028 2.032-4.448 1.973-2.508 1.977-2.612.154-3.587-1.367-.732-2.463-.595-4.031.504m11.595 2.471c1.72 1.823 1.567 5.985-.33 8.952l-1.58 2.473 2.13-2.423c2.479-2.819 2.498-9.13.03-9.875-1.211-.365-1.259-.196-.25.873m-6.796 2.011c-.614 1.147-.928 2.274-.697 2.504.23.23.932-.708 1.559-2.086 1.378-3.024.707-3.35-.862-.418M99.2 46.2c-1.543 1.543-1.543 5.057 0 6.6 1.543 1.543 5.057 1.543 6.6 0 2.805-2.805.692-7.8-3.3-7.8-1.155 0-2.64.54-3.3 1.2m-51.129 2.552c-4.779 2.437-7.279 6.275-7.766 11.924C39.507 69.938 45.913 77 55.114 77c6.58 0 11.644-2.604 13.984-7.192C71.766 64.578 71.544 64 66.865 64c-3.127 0-4.701.61-6.453 2.5C55.931 71.335 50 68.617 50 61.728c0-2.602.623-4.051 2.223-5.171 2.943-2.062 3.476-1.985 6.135.885 2.083 2.247 2.598 2.357 6.453 1.378 2.304-.585 4.187-1.346 4.185-1.692-.002-.345-.912-2.118-2.022-3.938-3.547-5.818-12.209-7.852-18.903-4.438m94 0c-4.765 2.429-7.27 6.259-7.817 11.952-.875 9.111 4.648 16.283 12.546 16.292 3.581.004 9.2-2.452 9.2-4.022 0-.536.45-.974 1-.974s1 .9 1 2c0 1.619.667 2 3.5 2h3.5V60h-9c-8.933 0-9 .019-9 2.5 0 2.296.367 2.5 4.5 2.5 2.475 0 4.5.36 4.5.8 0 3.343-7.643 4.356-10.345 1.371-2.622-2.897-2.159-8.795.845-10.763 2.321-1.521 2.684-1.517 5.079.052 1.885 1.235 3.632 1.511 6.5 1.027 2.156-.365 3.921-.827 3.921-1.028 0-2.229-3.125-5.825-6.47-7.444-5.111-2.475-8.974-2.55-13.459-.263M168 61.5V76h9V47h-9v14.5m-88.622-5.111C75.101 58.316 73 61.671 73 66.576c0 10.039 13.218 14.244 20.25 6.443 2.895-3.211 3.484-6.957 1.795-11.402-1.954-5.138-9.946-7.805-15.667-5.228m131 .048c-8.838 3.846-8.468 15.798.605 19.556 3.681 1.524 11.637.816 13.67-1.218 2.199-2.199-.899-4.247-6.449-4.262-2.711-.008-4.689-.513-4.945-1.263-.312-.917 1.331-1.25 6.158-1.25 6.322 0 6.583-.097 6.583-2.453 0-3.999-2.062-7.348-5.54-8.999-3.944-1.872-5.985-1.894-10.082-.111M98 66v10h9V56h-9v10m12 0v10h8l.015-5.25c.018-5.992 1.075-8.313 3.384-7.427 1.223.469 1.601 2.038 1.601 6.646V76h8v-8.8c0-5.511-.448-9.248-1.2-10-1.886-1.886-6.95-1.408-9.391.886l-2.22 2.085-.662-2.085c-.501-1.581-1.493-2.086-4.094-2.086H110v10m70-1.557c0 7.224.312 8.869 2 10.557 2.63 2.63 4.225 2.523 7.848-.525 2.925-2.462 3.017-2.474 3.644-.5.481 1.515 1.507 2.025 4.075 2.025H201V56h-8v5.878c0 3.983-.479 6.275-1.488 7.112-1.905 1.581-2.361.416-2.735-6.99l-.277-5.5-4.25-.307-4.25-.308v8.558m33-1.943c0 .833.889 1.5 2 1.5s2-.667 2-1.5-.889-1.5-2-1.5-2 .667-2 1.5m-130.989.987C80.28 65.573 81.562 70 83.897 70c3.038 0 4.593-2.629 3.271-5.53-1.272-2.792-3.33-3.184-5.157-.983m27.656 101.18c-.367.366-.66 1.154-.652 1.75.009.595.431.426.939-.377.788-1.246 1.263-1.173 3.235.5l2.311 1.96-1.905-2.25c-1.996-2.357-2.822-2.69-3.928-1.583M106.272 169c0 2.475.195 3.488.434 2.25.238-1.238.238-3.262 0-4.5-.239-1.238-.434-.225-.434 2.25m4.383 1.829c-.91 1.006-1.648 2.468-1.64 3.25.008.781.574.315 1.258-1.036s2.364-2.769 3.735-3.15c2.16-.601 2.213-.707.397-.793-1.152-.055-2.84.723-3.75 1.729m5.424 1.754c.048 1.165.285 1.402.604.605.289-.722.253-1.585-.079-1.917-.332-.332-.568.258-.525 1.312m4.173 5.917c.011 2.2.216 2.982.455 1.738.239-1.244.23-3.044-.02-4s-.446.062-.435 2.262m-3.709-1.569c-.317.512-.118 1.213.441 1.559.559.345 1.016-.074 1.016-.931 0-1.757-.6-2.015-1.457-.628m-5.633 1.901c.54 1.008 1.793 2.463 2.785 3.233 1.728 1.341 1.731 1.313.055-.661-.963-1.134-1.75-2.349-1.75-2.701 0-.352.787-.387 1.75-.077 1.477.475 1.516.394.25-.516-2.495-1.795-4.221-1.391-3.09.722m5.821 3.088c-.435 1.663-.305 2.054.437 1.312.582-.582.86-1.647.62-2.369-.25-.749-.703-.295-1.057 1.057m1.141 2.83c-1.243 1.586-1.208 1.621.378.378.963-.755 1.75-1.543 1.75-1.75 0-.823-.821-.294-2.128 1.372"/><path fill="#1976D2" fill-opacity=".259" fill-rule="evenodd" d="M8.459 2.75c-.921 4.38-1.958 5.675-5.313 6.637-4.531 1.299-3.93 2.921.787 2.124 3.813-.644 4.201-.428 12.75 7.093 4.849 4.267 8.899 7.796 9 7.843.489.228-5.045 22.206-5.844 23.205-.507.633-2.14 1.447-3.63 1.807-1.49.361-5.746 1.549-9.459 2.641L0 56.085v71.466c0 68.174.082 71.415 1.774 70.358 1.428-.892 4.105-.08 13.75 4.171 6.587 2.904 12.114 5.374 12.284 5.49.169.117.951 4.648 1.737 10.071.786 5.422 1.68 11.315 1.985 13.095.538 3.132.225 3.48-9.642 10.75C16.279 245.619 11.067 249 10.305 249c-.762 0-3.149-.9-5.305-2-4.478-2.284-5-2.388-5-.99 0 .555 2.137 2.022 4.75 3.26 3.281 1.555 4.849 2.944 5.07 4.491.175 1.231 1.012 2.239 1.858 2.239 1.093 0 1.378-.651.985-2.25-.475-1.927.961-3.375 10.009-10.093l10.563-7.843 11.938 5.262c6.565 2.894 12.363 6.056 12.882 7.027.52.971.945 3.145.945 4.831V256h76.035c72.133 0 75.983-.09 75.025-1.75-.556-.963-2.326-3.308-3.933-5.212l-2.921-3.461 3.556-10.039c1.956-5.521 3.929-10.527 4.384-11.125.456-.598 4.772-1.633 9.591-2.299 4.82-.667 9.719-1.41 10.887-1.651 1.704-.351 3.531 1.371 9.25 8.721 3.919 5.037 7.126 9.703 7.126 10.368 0 .665-1.125 4.199-2.5 7.852-2.667 7.087-2.967 8.596-1.704 8.596.437 0 2.098-3.583 3.69-7.962 2.521-6.933 3.259-8.043 5.705-8.58 3.661-.804 3.674-2.581.013-1.849-2.56.512-3.408-.222-10.083-8.731-8.294-10.572-8.176-9.64-2.926-22.974l3.305-8.393 6.205-1.108c5.443-.972 6.258-.911 6.634.495.236.881.481-30.712.545-70.207.072-44.73-.239-71.589-.827-71.227-.518.321-4.748-.372-9.4-1.538l-8.458-2.122-3.151-12.581-3.151-12.58 8.802-8.857c9.494-9.555 12.677-11.281 15.091-8.183 1.376 1.765 1.435 1.769.845.065-.349-1.007-.635-2.245-.635-2.75 0-.505-.698-.918-1.552-.918-.854 0-2.023-1.35-2.598-3-1.335-3.83-3.293-3.963-2.534-.172.506 2.534-.444 3.826-9.125 12.413l-9.691 9.586-12-2.954c-6.6-1.624-12.489-3.498-13.086-4.163-1.026-1.142-1.739-3.335-4.382-13.46L199.923 0H56.077l-1.002 3.75c-.552 2.063-1.502 6.093-2.112 8.956-.715 3.355-1.706 5.376-2.786 5.684-.923.263-6.331 1.89-12.019 3.615-8.914 2.705-10.572 2.947-12 1.759-.912-.758-5.141-4.441-9.398-8.185-8.15-7.167-7.999-6.824-6.1-13.829.261-.962.003-1.75-.574-1.75-.576 0-1.308 1.237-1.627 2.75m162.032 9.633c-2.311 1.69-2.613 8.295-.441 9.669 2.156 1.364 2.95 1.148 2.954-.802.002-.962.864-3.161 1.915-4.885 2.763-4.531-.125-7.129-4.428-3.982m6.432 3.54c-3.74 3.74-3.804 6.776-.173 8.221 1.512.602 2.235 1.287 1.606 1.523-.629.236-.953 1.195-.72 2.131.233.936-.199 4.064-.96 6.952-.761 2.888-.988 5.25-.505 5.25 1.416 0 2.829-4.778 2.829-9.565 0-3.679.321-4.435 1.886-4.435 1.898 0 5.114-5.248 5.114-8.344 0-1.503-3.589-4.656-5.299-4.656-.47 0-2.17 1.315-3.778 2.923m-13.95 10.606c-3.86 4.108-2.13 10.871 3.269 12.785 2.925 1.036 5.408-5.581 4.909-13.08-.125-1.879-.668-2.226-3.178-2.035-1.666.127-3.916 1.175-5 2.33M162 29c0 .55.675 1 1.5 1s1.5-.45 1.5-1-.675-1-1.5-1-1.5.45-1.5 1m4.5 0c-.34.55.084 1 .941 1S169 29.55 169 29s-.423-1-.941-1-1.219.45-1.559 1m-3.292 3.637c.9.9 2.347 1.364 3.214 1.031 1.736-.666 2.169-2.668.578-2.668-.55 0-1 .54-1 1.2 0 .933-.267.933-1.2 0-.66-.66-1.656-1.2-2.214-1.2s-.278.737.622 1.637M98.098 47.25c-1.406 3.777.173 6.212 4.254 6.56 3.037.259 3.819-.091 4.745-2.123 1.726-3.788-.297-6.687-4.664-6.687-2.712 0-3.686.505-4.335 2.25m70.616-.63c-.393.392-.714 7.413-.714 15.601V77.11l4.75-.305 4.75-.305v-30l-4.036-.297c-2.22-.163-4.358.024-4.75.417M46.299 48.96c-4.291 2.616-6.3 6.841-6.295 13.24.006 8.577 4.048 13.385 12.847 15.281C60.352 79.098 71 72.701 71 66.579c0-2.028-.633-2.447-4.592-3.04-2.525-.379-4.663-.543-4.75-.364-1.768 3.629-2.69 4.325-5.729 4.325-2.617 0-3.689-.603-4.891-2.75-1.382-2.472-1.383-3.028-.005-5.5 1.954-3.504 5.289-4.056 7.286-1.205 1.294 1.847 2.102 2.06 5.591 1.47 4.959-.838 5.641-1.771 4.069-5.567-2.723-6.573-14.599-9.306-21.68-4.988m94 0c-4.378 2.669-6.685 7.438-6.627 13.696.056 5.963 2.86 11.354 6.85 13.172 4.187 1.908 10.851 1.453 13.905-.949l2.697-2.122.568 2.174c.473 1.807 1.181 2.123 4.188 1.872l3.62-.303.29-8.25.291-8.25h-10.148c-8.842 0-10.069.203-9.54 1.582.334.87.607 2.22.607 3 0 .995 1.23 1.418 4.122 1.418 3.551 0 3.95.208 2.878 1.5-2.71 3.265-8.485 1.119-9.507-3.532-1.244-5.665 4.241-10.403 7.499-6.478.789.951 2.191 1.291 3.872.938 1.45-.305 3.655-.76 4.9-1.013 2.184-.444 2.208-.568.701-3.482-2.267-4.384-7.024-6.926-12.965-6.926-3.199 0-6.153.704-8.201 1.953M77.42 56.885c-6.324 3.857-6.989 12.775-1.309 17.555 2.457 2.068 4.1 2.56 8.543 2.56 4.745 0 5.901-.401 8.423-2.923 2.433-2.433 2.919-3.732 2.901-7.75-.024-5.102-1.746-8.207-5.662-10.21-3.318-1.697-9.453-1.331-12.896.768M121 57c-2.392 2.392-3 2.494-3 .5 0-1.113-1.171-1.5-4.535-1.5h-4.535l.285 10.25.285 10.25 4.703.303 4.703.303.297-6.723c.188-4.265.754-6.875 1.547-7.137.922-.304 1.25 1.461 1.25 6.725v7.139l4.75-.305 4.75-.305v-9.332c0-8.085-.26-9.522-1.941-10.75-2.735-1.998-6.216-1.761-8.559.582m88.5-1.055c-7.99 3.271-8.324 15.509-.533 19.538 3.914 2.024 12.938 1.972 15.883-.091l2.296-1.608-2.247-2.392c-1.815-1.931-1.938-2.392-.641-2.392 4.037 0 3.07-7.705-1.444-11.503-3.085-2.596-9.061-3.292-13.314-1.552M.474 127.5c0 39.6.124 55.654.276 35.676.151-19.978.151-52.378 0-72C.598 71.554.474 87.9.474 127.5M98 66.5V77h9V56h-9v10.5m81.192-1.373c.356 7.455.78 9.38 2.313 10.5 2.637 1.929 5.8 1.708 8.748-.611 2.515-1.979 2.523-1.979 3.041 0 .411 1.571 1.371 1.984 4.612 1.984H202V56h-10v6.5c0 5.111-.321 6.5-1.5 6.5s-1.5-1.389-1.5-6.5V56H178.755l.437 9.127m34.496-3.481c-1.305 1.304-.682 2.354 1.395 2.354 1.164 0 1.909-.524 1.688-1.187-.487-1.462-2.157-2.094-3.083-1.167M82 65.871c0 3.383 1.04 4.435 3.464 3.504 2.548-.977 1.604-5.794-1.214-6.195-1.906-.27-2.25.141-2.25 2.691M214 70c.825.533 2.4.969 3.5.969s2.675-.436 3.5-.969c1.078-.697.093-.969-3.5-.969s-4.578.272-3.5.969m-87.553 13.037a3554.32 3554.32 0 0 0-15.947 8.667l-7 3.836-.767 13.98c-.421 7.689-.646 15.742-.5 17.895l.267 3.916 15.5 8.747 15.5 8.746 11.457-6.063c6.301-3.334 13.501-7.262 16-8.729l4.543-2.666.761-10.933c.419-6.013.644-14.034.5-17.825l-.261-6.892-10-5.647c-5.5-3.107-12.499-7.047-15.553-8.756l-5.553-3.108-8.947 4.832M134 96.726c-3.856 1.08-6.41 3.022-7.555 5.743-1.117 2.657-1.658 2.94-5.135 2.689-6.586-.475-11.906 6.45-9.704 12.63 1.311 3.679 5.803 6.625 9.923 6.508 2.916-.082 3.777.395 5.006 2.773 2.848 5.507 10.201 6.759 14.779 2.516 3.779-3.502 4.425-7.237 2.013-11.639-1.937-3.538-1.942-3.704-.16-5.904 2.405-2.97 2.332-8.138-.161-11.307-2.141-2.722-6.567-4.692-9.006-4.009m5 2.652c0 .207.787.995 1.75 1.75 1.586 1.243 1.621 1.208.378-.378-1.307-1.666-2.128-2.195-2.128-1.372m-7.483 3.014c-1.385 1.385-2.502 2.875-2.484 3.313.065 1.553 4.029 5.566 4.742 4.8.399-.428.254-.949-.322-1.158-1.426-.515-.536-7.347.956-7.347 3.484 0 4.784 5.374 1.841 7.608-1.596 1.212-1.518 1.331.893 1.36 2.769.034 3.857-1.498 3.857-5.427 0-2.53-1.342-3.941-4.733-4.981-1.644-.503-2.899-.019-4.75 1.832M127 106.711c0 .574.787 1.662 1.75 2.417 1.619 1.269 1.64 1.222.283-.628-.807-1.1-1.594-2.187-1.75-2.417-.156-.229-.283.054-.283.628M125.5 109c.995 1.1 2.035 2 2.31 2 .275 0-.315-.9-1.31-2-.995-1.1-2.035-2-2.31-2-.275 0 .315.9 1.31 2m-8.845 1.829c-4.437 4.903.8 11.743 6.873 8.976 3.263-1.487 4.16-5.106 2.059-8.312-2.268-3.462-4.085-3.145-2.019.352 1.579 2.674 1.576 3.006-.059 5.5-2.175 3.321-3.024 3.326-5.183.03-1.604-2.449-1.609-2.817-.069-5.5 1.852-3.227.921-3.835-1.602-1.046m3.005 1.613c-.694 1.809 1.135 3.163 2.47 1.828.607-.607.435-1.386-.471-2.138-1.119-.929-1.549-.862-1.999.31m11.387 7.808c-.766 1.787-1.56 3.535-1.764 3.884-.205.349.355 1.361 1.244 2.25 2.161 2.161 6.771 2.05 8.818-.213 3.447-3.809.993-9.171-4.197-9.171-2.105 0-3.02.726-4.101 3.25m2.397-.074c-.406 1.279-.138 2.403.699 2.934 1.081.684 1.091.862.048.875-.72.008-1.031.465-.691 1.015.927 1.5 2.484 1.205 3.177-.601.338-.88-.014-1.999-.781-2.485-.998-.631-1.039-.888-.146-.899 1.717-.021 1.577-1.675-.199-2.357-.893-.343-1.701.24-2.107 1.518M114 119.378c0 .207.787.995 1.75 1.75 1.586 1.243 1.621 1.208.378-.378-1.307-1.666-2.128-2.195-2.128-1.372m-48 1.608c0 .622.422.871.939.552.516-.319 1.432.217 2.036 1.191 1.015 1.636 1.076 1.619.8-.218-.313-2.086-3.775-3.485-3.775-1.525m140.607 1.596c-.819 2.134-.773 2.418.393 2.418.55 0 1-.638 1-1.417s.563-1.643 1.25-1.921c.789-.318.645-.533-.393-.583-.904-.043-1.916.633-2.25 1.503m-145.357.107c.962.252 1.75 1.086 1.75 1.853 0 .841.607 1.162 1.529.808 1.322-.507 1.288-.77-.25-1.936-.978-.743-2.454-1.313-3.279-1.266-1.05.059-.975.221.25.541m151.24.327c-.346.559-1.047.758-1.559.441-.512-.316-.931-.098-.931.484s.675 1.059 1.5 1.059 1.5-.417 1.5-.927c0-.509.787-1.132 1.75-1.384 1.578-.412 1.584-.468.059-.573-.93-.064-1.974.341-2.319.9M70 127c0 .55-.675 1-1.5 1s-1.5.408-1.5.906c0 .499.9.671 2 .384 1.693-.443 2.991-3.29 1.5-3.29-.275 0-.5.45-.5 1m136 2c0 .55.9 1 2 1s2-.45 2-1-.9-1-2-1-2 .45-2 1m7 0c0 .55.477 1 1.059 1s.781-.45.441-1-.816-1-1.059-1-.441.45-.441 1m-150.5 1c-.34.55.11 1 1 1s1.34-.45 1-1c-.34-.55-.79-1-1-1-.21 0-.66.45-1 1m4.084 4.359c.347.902 1.017 1.641 1.491 1.641.474 0 1.532 1.238 2.353 2.75.821 1.512 1.51 2.158 1.532 1.434.022-.723-.456-2.243-1.063-3.377-.847-1.583-.789-2.26.25-2.919.908-.575.961-.862.162-.873-.655-.008-1.483.457-1.839 1.034-.442.714-1.104.669-2.082-.142-1.164-.966-1.315-.881-.804.452M211 133.901c0 .778-.831 1.028-2.25.676-1.238-.307-1.691-.301-1.008.013.929.427.968 1.083.157 2.598-.781 1.459-.778 2.333.008 3.119.791.791 1.093.575 1.093-.778 0-1.029.747-2.697 1.661-3.706.913-1.01 1.363-2.133 1-2.496-.364-.363-.661-.105-.661.574m-126.631 8.934L68.5 151.5l-.769 10.5c-.423 5.775-.648 13.875-.5 18l.269 7.5 15 8.25c8.25 4.537 15.605 8.249 16.345 8.25 1.388 0 27.374-13.897 30.299-16.203 1.359-1.072 1.763-4.278 2.328-18.469l.683-17.171-9.328-5.419c-5.13-2.98-12.311-7.027-15.958-8.993l-6.63-3.576-15.87 8.666m66.502.031-15.63 8.634-.732 17.339c-.402 9.536-.344 17.713.13 18.17 1.816 1.751 30.086 16.989 31.437 16.944.783-.026 8.174-3.778 16.424-8.338l15-8.29.871-17.256c.715-14.161.625-17.493-.5-18.581-1.548-1.497-30.067-17.552-30.859-17.372-.282.064-7.545 4.001-16.141 8.75M212 138.918c0 .505-.301 1.704-.67 2.664-.421 1.098-.28 1.505.379 1.098 1.383-.855 2.361-4.68 1.197-4.68a.915.915 0 0 0-.906.918M66.5 142c.34.55.816 1 1.059 1s.441-.45.441-1-.477-1-1.059-1-.781.45-.441 1m148.529-.039c-.809.512-1.211 1.191-.893 1.509.319.318 1.148-.108 1.844-.946 1.443-1.738 1.166-1.902-.951-.563M63 143.393c0 .216.698.661 1.552.989.89.341 1.291.173.941-.393-.587-.951-2.493-1.406-2.493-.596m83.761 6.719c-3.864 1.957-8.786 8.509-8.728 11.618.054 2.884 5.18 9.29 9.274 11.589l3.806 2.139 4.69-2.479c3.38-1.786 5.342-3.729 7.021-6.951l2.33-4.473-2.381-4.405c-1.536-2.842-3.881-5.249-6.604-6.778-4.879-2.741-4.53-2.731-9.408-.26M93 151.5c0 2.035.511 2.519 2.75 2.605 2.542.097 2.472.191-.918 1.25-2.018.63-4.03 1.507-4.471 1.949-1.138 1.141 1.638 2.663 4.889 2.681 2.539.014 2.75.322 2.75 4.015 0 3.6.25 4 2.5 4 1.949 0 2.5.512 2.5 2.322 0 4.184 3.147 11.671 6.18 14.704 2.877 2.877 6.82 4.018 6.82 1.974 0-.55-.652-1-1.449-1-1.838 0-5.927-5.461-7.413-9.899-1.405-4.198-1.488-11.767-.138-12.601 1.619-1.001 1.143-2.492-.584-1.83-.871.335-1.967 1.558-2.436 2.719-.735 1.819-.862 1.662-.917-1.139-.056-2.891.241-3.252 2.687-3.265 3.251-.018 6.027-1.54 4.889-2.681-.441-.442-2.453-1.319-4.471-1.949-3.39-1.059-3.46-1.153-.918-1.25 2.239-.086 2.75-.57 2.75-2.605 0-2.444-.167-2.5-7.5-2.5s-7.5.056-7.5 2.5m50.801 3.545c-1.674 1.675-2.795 3.295-2.489 3.6.305.305 2.175-1.065 4.155-3.045 1.98-1.98 3.1-3.6 2.489-3.6-.61 0-2.48 1.37-4.155 3.045m13.309.444c3.761 3.872 3.89 3.953 3.89 2.466 0-1.431-4.631-5.955-6.095-5.955-.652 0 .34 1.57 2.205 3.489M94 158c1.957 1.264 4 1.264 4 0 0-.55-1.237-.993-2.75-.985-2.143.012-2.419.23-1.25.985m9 0c0 1.264 2.043 1.264 4 0 1.169-.755.893-.973-1.25-.985-1.513-.008-2.75.435-2.75.985m74.45.408c-3.591 1.563-8.197 6.735-9.06 10.176-1.683 6.703 3.66 15.545 10.506 17.388 6.512 1.754 13.25-1.544 16.699-8.172 5.495-10.562-7.215-24.147-18.145-19.392M74.4 161.4c-2.787 2.787-3.4 4.157-3.4 7.6 0 5.561 5.023 11.002 10.15 10.996 11.261-.012 15.85-14.366 6.43-20.111-4.861-2.963-9.2-2.465-13.18 1.515m.928.994c-2.224 1.913-2.783 3.239-2.783 6.606 0 8.401 9.493 12.116 15.532 6.077 3.726-3.727 3.841-7.833.334-12-3.353-3.985-8.907-4.275-13.083-.683m1.901-.725c-1.455.586-4.229 5.564-4.229 7.59 0 .747.696 2.232 1.547 3.3 1.462 1.834 1.513 1.765.934-1.25-1.138-5.917 4.029-10.689 8.834-8.159 2.873 1.511 3.651 2.79 3.67 6.029.023 4.01-2.592 6.069-7.155 5.633-2.336-.222-3.716.037-3.512.661.185.565 1.983 1.166 3.995 1.337 7.478.632 11.533-8.055 6.232-13.355-2.354-2.355-6.933-3.147-10.316-1.786m4.771 2.02c0 .599-.735 1.026-1.632.95-1.286-.109-1.637.817-1.655 4.361-.019 4.047.22 4.516 2.383 4.662 3.42.232 4.927-2.094 3.832-5.913-.939-3.275-2.928-6.033-2.928-4.06m26.2.511c-2.663 2.663-.693 12.872 3.427 17.769 5.374 6.386 9.61 2.138 7.458-7.479-1.926-8.606-7.397-13.778-10.885-10.29m.17 1.278c-1.608 4.192 2.216 15.634 6 17.952 2.758 1.689 4.927-1.917 4.153-6.901-1.324-8.519-8.237-16.044-10.153-11.051m33.236-.062c.335.871 1.047 1.584 1.584 1.584 1.315 0 .492-2.273-1.003-2.771-.731-.244-.954.214-.581 1.187m18.061-.749c-.367.366-.653 1.379-.637 2.25.025 1.3.221 1.257 1.092-.242 1.077-1.852.765-3.228-.455-2.008M81 167c0 .55.45 1 1 1s1-.45 1-1-.45-1-1-1-1 .45-1 1m65.427 3.521c2.055 1.555 3.203 1.308 2.114-.454-.362-.587-1.42-1.053-2.35-1.035-1.485.028-1.456.209.236 1.489M154.5 170c-.34.55.057 1 .882 1s1.778-.45 2.118-1c.34-.55-.057-1-.882-1s-1.778.45-2.118 1m-72.687.683c.721.289 1.584.253 1.916-.079.332-.332-.258-.568-1.312-.525-1.165.048-1.402.285-.604.604m29.744 1.54c-.856 1.222-1.557 2.556-1.557 2.964 0 1.293 3.79 2.831 5.428 2.202 2.387-.916 1.878-2.258-.678-1.784-1.237.229-1.687.15-1-.177 1.447-.688 1.714-5.428.307-5.428-.519 0-1.644 1-2.5 2.223m19.943 26.388c-4.284 1.073-7.38 2.633-7.896 3.979-.798 2.079 3.415 4.388 9.276 5.082 4.346.515 4.947.831 3.924 2.064-1.529 1.842-8.218.965-11.804-1.547-3.135-2.197-17.002-2.256-21.517-.092-7.433 3.563-1.675 7.903 10.485 7.903 7.305 0 7.502-.131 7.285-4.842-.042-.924.609-1.129 2.093-.66 1.185.375 4.854 1.269 8.154 1.987 3.3.718 7.472 1.85 9.27 2.515 4.949 1.83 18.508.963 21.061-1.347 3.628-3.284 1.499-4.944-9.169-7.149-2.119-.438-2.577-.901-1.807-1.829 2.371-2.857-2.581-5.602-11.111-6.158-3.434-.224-7.144-.181-8.244.094m1.958 2.456c-.363.588.285 1.314 1.441 1.617 1.156.302 2.101.977 2.101 1.5s-1.012.674-2.25.336c-2.019-.552-2.062-.498-.418.528 2.039 1.272 8.668.436 8.668-1.093 0-.525-.675-.955-1.5-.955s-1.5.45-1.5 1-.47 1-1.044 1c-1.545 0-.698-3.39 1.044-4.18.875-.396-.038-.709-2.191-.75-2.03-.038-3.988.41-4.351.997m-23.208 7.595c-1.96.791-1.463 2.338.75 2.338 2.462 0 2.656 1.717.25 2.217-1.529.318-1.497.432.25.906 1.1.299 3.35-.019 5-.706l3-1.249-3-1.194c-2.756-1.097-2.838-1.261-1-2.014 1.678-.687 1.517-.818-1-.811-1.65.005-3.562.236-4.25.513m36 0c-1.769.714-1.554 2.338.309 2.338.857 0 1.281-.45.941-1-.34-.55-.141-1 .441-1s1.059.952 1.059 2.117c0 1.671-.451 1.998-2.144 1.556-1.556-.407-1.843-.26-1.047.536 1.162 1.162 6.468 1.356 8.178.299 1.854-1.146 1.046-2.508-1.487-2.508-2.853 0-3.38-1.623-.75-2.311.963-.251.4-.474-1.25-.494-1.65-.02-3.562.19-4.25.467m4.563 4.021c.721.289 1.584.253 1.916-.079.332-.332-.258-.568-1.312-.525-1.165.048-1.402.285-.604.604m-28.232 1.298c.54.54 2.542 1.236 4.45 1.546l3.469.565-4-1.531c-4.728-1.809-5.221-1.882-3.919-.58m-24.192 1.448c-.312.812-.313 1.885-.003 2.386 1.223 1.979 9.793 3.46 16.68 2.883 4.043-.339 6.749-.207 6.426.314-.918 1.486 3.816 3.931 8.979 4.639 6.114.838 5.45-.93-.955-2.543-2.484-.625-5.004-1.918-5.598-2.873-.886-1.423-2.255-1.674-7.611-1.395-8.315.434-12.904-.437-15.385-2.918-1.635-1.635-2.063-1.718-2.533-.493m34.713-.052c-3.076 3.707 16.548 7.404 23.737 4.471 3.085-1.259 2.751-1.325-5.074-1.003-8.463.348-15.765-1.409-15.765-3.794 0-1.48-1.543-1.306-2.898.326m-36.087 4.316c-.021 1.671 4.025 4.322 6.458 4.231 1.417-.053 1.035-.436-1.273-1.272-1.815-.658-3.721-1.861-4.235-2.674-.57-.901-.94-1.013-.95-.285m33.485.532c1.65.587 3.888 1.676 4.973 2.421 1.084.745 2.884 1.313 4 1.264 1.299-.058.843-.432-1.27-1.041-1.813-.523-3.549-1.607-3.857-2.41-.337-.877-1.812-1.428-3.703-1.38l-3.143.079 3 1.067m28.874 4.301c-2.397 2.592-10.742 4.11-17.111 3.111-2.678-.42-3.186-.329-1.763.316 1.1.499 5.15.937 9 .975 7.459.073 14-2.19 14-4.845 0-2.249-1.818-2.054-4.126.443m-51.624.18c1.237.238 3.263.238 4.5 0 1.237-.239.225-.434-2.25-.434s-3.487.195-2.25.434m36 0c1.238.238 3.262.238 4.5 0 1.238-.239.225-.434-2.25-.434s-3.488.195-2.25.434m-26.25 2.47c-2.2.537-6.475.759-9.5.495-3.439-.301-4.751-.168-3.5.354 1.1.459 5.502.866 9.781.905 5.831.052 7.921.434 8.339 1.522.702 1.829 6.615 3.832 9.613 3.256 1.931-.371 1.852-.456-.533-.572-4.192-.204-8.7-2.879-8.7-5.162 0-2.185.118-2.168-5.5-.798M98 229.468c0 2.652 6.184 4.532 14.909 4.532 4.385 0 8.249-.446 8.586-.992.386-.625-2.088-.945-6.691-.866-6.678.115-9.596-.598-16.054-3.923-.412-.212-.75.35-.75 1.249m33.5-.462c-1.65.417-2.262.811-1.359.876.902.065 3.602 1.008 6 2.096 5.333 2.42 17.777 2.692 22.359.489l3-1.442-3.138.542c-6.744 1.166-14.896.675-18.862-1.135-2.2-1.005-4.225-1.907-4.5-2.005-.275-.098-1.85.163-3.5.579m30.579 3.795c-.137 2.262-6.739 4.194-14.797 4.33l-7.782.132 5.064.978c8.707 1.682 19.652-1.616 18.109-5.457-.415-1.034-.531-1.03-.594.017M121.5 236c-1.1.473-5.6.95-10 1.061l-8 .202 5.064.978c5.382 1.04 16.436-.515 16.436-2.312 0-1.103-.805-1.087-3.5.071M99 238.814c0 1.415 4.71 3.134 10.431 3.807 5.393.634 15.065-.996 16.129-2.718.305-.494-.709-.397-2.253.214-4.279 1.693-17.516 1.343-21.197-.56-1.711-.885-3.11-1.219-3.11-.743m36 .141c0 3.089 19.251 4.954 23.5 2.278 1.786-1.126 1.679-1.182-1-.523-5.038 1.237-16.03.671-19.378-.999-1.717-.857-3.122-1.197-3.122-.756"/><path fill="#1976D2" fill-opacity=".63" fill-rule="evenodd" d="M163 16.893c0 .491.652 1.143 1.449 1.449.969.372 1.265.076.893-.893-.607-1.582-2.342-1.994-2.342-.556M166 23c-.825.533-1.05.969-.5.969s1.675-.436 2.5-.969c.825-.533 1.05-.969.5-.969s-1.675.436-2.5.969m5.838 4.866c.234 3.378-.274 6.133-1.66 9.001L168.181 41h2.749c3.409 0 5.066-3.172 5.801-11.101.487-5.251.372-5.64-1.856-6.236-1.306-.35-2.6-.642-2.875-.65-.275-.008-.348 2.176-.162 4.853m-9.966-2.116c-1.243 1.586-1.208 1.621.378.378 1.666-1.307 2.195-2.128 1.372-2.128-.207 0-.995.788-1.75 1.75m17.923 3.616c.201 1.726-.29 5.041-1.091 7.367-1.617 4.694-1.251 4.687 4.345-.083 2.82-2.405 3.095-2.99 1.759-3.738-.872-.487-1.856-1.968-2.188-3.289-.957-3.812-3.265-4.023-2.825-.257m-50.872 70.557c-1.608 1.608-2.923 3.653-2.923 4.545 0 1.312-.718 1.511-3.75 1.04l-3.75-.583 3.987 1.501c4.971 1.872 6.545 3.966 6.398 8.515l-.115 3.559-.719-3.698c-1.355-6.967-6.248-9.511-11.222-5.834-1.556 1.151-2.829 1.654-2.829 1.119 0-.536 1-1.674 2.223-2.53 1.222-.856 1.75-1.557 1.174-1.557-1.489 0-5.043 4.091-5.841 6.724-1.541 5.084 3.987 11.276 10.068 11.276 2.761 0 8.376-4.904 8.376-7.316 0-2.919 6.199-3.634 9.777-1.127 1.223.856 2.223 1.994 2.223 2.53 0 .535-1.314.002-2.92-1.186-3.986-2.947-7.099-1.973-9.33 2.917-2.297 5.036-2.228 5.661.885 8.109 3.324 2.615 5.406 2.615 8.73 0 1.449-1.139 2.635-1.615 2.635-1.056 0 .558-1 1.716-2.223 2.572-1.222.856-1.705 1.557-1.072 1.557.632 0 2.083-1.186 3.222-2.635 2.737-3.479 2.766-9.428.057-11.879-1.982-1.794-1.984-1.858-.114-3.905 4.292-4.7 3.366-11.373-1.961-14.128-4.342-2.245-7.723-1.793-10.986 1.47m.532.532c-2.904 2.903-3.042 4.661-.746 9.467 1.621 3.393 1.96 3.575 6.534 3.508 5.491-.079 7.421-1.502 8.352-6.153.536-2.684.151-3.685-2.401-6.237-3.849-3.849-8.256-4.069-11.739-.585m1 1c-2.901 2.9-2.998 3.818-.792 7.551 1.278 2.164 2.56 2.901 5.543 3.185 3.724.355 6.794-1.336 6.794-3.742 0-.492-.64.02-1.422 1.137-1.094 1.56-2.24 1.935-4.953 1.618-6.899-.805-8.576-9.174-2.161-10.784 3.502-.879 5.197-.024 7.527 3.796 2.32 3.806 2.697 3.016.546-1.144-2.468-4.773-7.231-5.468-11.082-1.617m3.481.795c-.548 2.145-.527 6.885.032 7.23.406.251 1.505-.106 2.444-.792 1.385-1.013 1.511-1.759.672-3.968-.569-1.496-1.496-2.72-2.059-2.72-.564 0-1.054.112-1.089.25M135 107c0 .55.45 1 1 1s1-.45 1-1-.45-1-1-1-1 .45-1 1m-17.75 2.522c-4.412 3.121-1.968 11.478 3.356 11.478 1.072 0 3.062-.711 4.421-1.58l2.473-1.58-2.361 2.08c-4.94 4.352-11.114 1.218-11.169-5.67-.025-2.98-.236-3.398-1.029-2.038-3.705 6.355 7.122 13.94 12.9 9.038 1.782-1.512 1.95-2.338 1.23-6.08-.457-2.382-1.223-4.713-1.701-5.18-1.851-1.806-5.898-2.039-8.12-.468m1.31 2.412c-1.668 1.843-1.666 2.079.06 5 .996 1.686 2.067 3.066 2.38 3.066.313 0 1.384-1.38 2.38-3.066 1.726-2.921 1.728-3.157.06-5-.962-1.064-2.06-1.934-2.44-1.934-.38 0-1.478.87-2.44 1.934m.571.408c-1.321 1.592-.505 2.658 2.036 2.658 2.029 0 2.1-.141 1.226-2.418-.743-1.935-1.791-2.012-3.262-.24M119.5 117c.34.55 1.041 1 1.559 1s.941-.45.941-1-.702-1-1.559-1-1.281.45-.941 1m11.552 2.637c-2.629 4.455-2.356 6.336 1.205 8.329 2.464 1.378 3.023 1.378 5.493.003 3.794-2.113 4.412-8.041 1.082-10.374-3.489-2.444-5.435-1.933-7.78 2.042m2.354.515c-.391.633.056 1.713.994 2.399 1.28.935 1.38 1.363.403 1.711-.717.255-.941.85-.499 1.322.443.472 1.222.196 1.732-.613.644-1.022.416-1.853-.746-2.721-.933-.698-1.146-1.25-.481-1.25.655 0 1.191-.45 1.191-1 0-1.365-1.719-1.264-2.594.152m8.846 2.348c.011 2.2.216 2.982.455 1.738.239-1.244.23-3.044-.02-4s-.446.062-.435 2.262m-16.189 2.576c-.066 1.641 3.892 5.924 5.474 5.924.499 0-.124-.723-1.386-1.607s-2.684-2.571-3.159-3.75c-.578-1.432-.886-1.62-.929-.567m7.687 6.586c.688.278 1.813.278 2.5 0 .688-.277.125-.504-1.25-.504s-1.937.227-1.25.504m-61.001 3.034c-1.34.345-1.6 1.078-1.109 3.127.844 3.521.846 3.522 3.335 2.19 1.368-.732 2.034-1.912 1.836-3.252-.336-2.272-1.32-2.772-4.062-2.065m129.793 1.096c-1.33 1.33-.344 4.027 1.664 4.552 2.578.674 2.345.857 3.141-2.469.548-2.289.315-2.625-1.818-2.625-1.345 0-2.689.244-2.987.542m-135.819.909c-.25.44.383 2.149 1.406 3.799l1.86 3 .006-2.628c.005-2.616-2.406-5.691-3.272-4.171m142.9.839c-.893 2.326-.768 4.46.26 4.46.728 0 1.437-1.631 2.164-4.975.291-1.34-1.89-.877-2.424.515m3.984 3.042c-.939 2.446-.735 2.769.893 1.418 1.662-1.38 1.99-3 .607-3-.491 0-1.166.712-1.5 1.582M63 140.759c0 .418.927 1.339 2.06 2.046 1.902 1.188 1.976 1.13.964-.759-1.062-1.986-3.024-2.821-3.024-1.287m83.285 10.166c-1.768 1.101-4.397 3.876-5.842 6.165l-2.628 4.163 2.241 4.355c5.103 9.922 15.693 10.81 21.59 1.81 6.218-9.491-5.831-22.429-15.361-16.493M93 151.434c0 .807 1.165 1.571 2.668 1.75 2.133.252 2.692.868 2.783 3.066.096 2.282-.316 2.767-2.418 2.85l-2.533.099 2.448.683c1.979.553 2.457 1.347 2.5 4.151.042 2.783.447 3.467 2.052 3.467 1.583 0 2.064-.769 2.307-3.688.239-2.874.79-3.782 2.5-4.114 1.934-.375 1.889-.442-.384-.562-2.273-.12-2.525-.49-2.136-3.136.348-2.372.939-3 2.826-3 1.455 0 2.387-.586 2.387-1.5 0-1.2-1.5-1.5-7.5-1.5-5.846 0-7.5.316-7.5 1.434m52.942 1.078c-2.461 1.299-5.54 6.223-4.526 7.238.652.651 7.718-6.872 7.361-7.838-.152-.413-1.428-.143-2.835.6M153 151.5c0 1.325 8.006 8.3 8.538 7.438.684-1.106-5.718-7.938-7.438-7.938-.605 0-1.1.225-1.1.5M91 158c0 .55.477 1 1.059 1s.781-.45.441-1-.816-1-1.059-1-.441.45-.441 1m17.5 0c-.34.55-.141 1 .441 1s1.059-.45 1.059-1-.198-1-.441-1-.719.45-1.059 1m-32.468 2.187c-3.825 2.592-5.672 7.125-4.617 11.332.839 3.342 4.926 7.501 7.29 7.418 1.507-.054 1.457-.2-.317-.917-2.981-1.204-6.388-5.847-6.388-8.705 0-6.145 6.01-11.282 11.567-9.888 4.231 1.062 7.433 4.979 7.433 9.093 0 4.815-1.502 7.357-5.329 9.022-2.575 1.12-2.765 1.387-1.01 1.419 1.219.022 3.289-1.302 4.75-3.038 7.836-9.312-3.383-22.508-13.379-15.736M181 158.99c1.22.797 1.087.982-.715.995-1.219.008-3.806 1.412-5.75 3.119-1.944 1.707-3.542 2.719-3.55 2.25-.009-.47-.452-.179-.985.646-1.692 2.619-1.135 10.046 1.016 13.526 2.226 3.602 7.321 6.474 11.484 6.474 7.088 0 13.773-6.734 13.773-13.875 0-7.668-5.115-13.257-12.639-13.811-2.974-.219-3.713-.029-2.634.676m-104.365 4.083c-2.748 2.161-3.561 6.915-1.688 9.875.599.947.726.036.368-2.634-.44-3.285-.134-4.495 1.569-6.198 2.811-2.811 6.647-2.676 9.661.339 3.147 3.146 3.111 5.98-.118 9.209-2.145 2.145-3.186 2.476-6.25 1.983-2.533-.407-3.21-.293-2.177.366 2.736 1.744 6.118 1.023 9.077-1.936 3.602-3.602 3.683-6.021.334-10-3.097-3.681-6.92-4.037-10.776-1.004m95.237-.323c-1.243 1.586-1.208 1.621.378.378 1.666-1.307 2.195-2.128 1.372-2.128-.207 0-.995.787-1.75 1.75m-66.672.45c-1.83 1.83-1.416 11.734.681 16.3 1.956 4.26 4.372 6.762 7.619 7.892 1.586.551 1.43.16-.751-1.889-5.438-5.111-8.529-14.295-6.819-20.26 1.036-3.612.984-3.757-.73-2.043m35.8.635c0 1.856 1.207 4.165 2.177 4.165 1.39 0 .559-4.266-.927-4.755-.687-.226-1.25.039-1.25.59m18.032 1.104c-.648 1.212-.68 2.161-.085 2.528.83.513 3.053-2.327 3.053-3.901 0-1.337-2.016-.404-2.968 1.373m-80.508.023c-.216.348-.011 1.249.454 2.002.466.754.447 2.418-.041 3.703-.488 1.283-.786 2.37-.662 2.416 1.804.668 4.982.312 5.778-.647.987-1.189.628-6.088-.529-7.246-.81-.809-4.536-.98-5-.228m2.393 1.288c-.71 2.13-.29 5.053.786 5.466 2.036.781 2.77-.441 1.317-2.192-.934-1.125-.956-1.524-.083-1.524.649 0 .903-.45.563-1-.547-.885-2.363-1.412-2.583-.75m64.524 4.282c2.474 1.871 3.559 1.861 3.559-.032 0-.977-.958-1.489-2.75-1.468-2.634.03-2.668.094-.809 1.5m8.018-.465c-1.164 1.883.284 2.133 3.203.551l2.838-1.538-2.691-.04c-1.48-.022-2.988.44-3.35 1.027m18.084.864c-.317.512-.111 1.218.457 1.569.568.351.82.982.561 1.401-.259.42 2.387.726 5.881.681 3.494-.045 6.116-.47 5.827-.944-.289-.474.077-1.234.813-1.689.867-.535.206-.795-1.872-.736-1.765.05-3.21.477-3.21.948s-.914.29-2.031-.403c-1.678-1.04-2.195-.998-2.984.242-.859 1.35-1.415.72-1.103-1.25.169-1.07-1.653-.929-2.339.181m15.568.861c-.893 1.669-.72 1.961 1.171 1.978 1.22.011 2.866.179 3.659.375.792.195 1.612-.432 1.823-1.395.238-1.087-.213-1.75-1.191-1.75-.865 0-1.587.563-1.605 1.25-.019.736-.602.497-1.42-.583-1.341-1.768-1.426-1.764-2.437.125m-75.444-.125c-.951.95-.825 4.117.188 4.743.47.291.808-.806.75-2.438-.058-1.632-.142-2.968-.188-2.97-.046-.001-.384.298-.75.665"/></svg>