<svg xmlns="http://www.w3.org/2000/svg" width="256" height="256"><path fill-opacity=".016" d="M0 128.004v128.004l128.25-.254 128.25-.254.254-127.75L257.008 0H0v128.004m.485.496c0 70.4.119 99.053.265 63.672.146-35.38.146-92.98 0-128C.604 29.153.485 58.1.485 128.5" fill="#1976D2" fill-rule="evenodd"/><path fill-opacity=".287" d="M107 2.841c0 1.426-1.296 2.13-5.75 3.122C55.96 16.055 19.041 52.104 7.504 97.5c-2.098 8.252-2.505 9.026-4.896 9.316L0 107.133V148h2.4c2.178 0 2.558.714 4.118 7.75 6.37 28.729 23.565 55.107 47.853 73.409 12.928 9.741 32.079 18.29 49.879 22.265 1.513.338 2.75 1.281 2.75 2.095 0 1.261 3.12 1.481 21 1.481 17.419 0 21-.241 21-1.412 0-.886 1.585-1.672 4.25-2.108 7.328-1.199 22.92-6.556 31.242-10.734 27.982-14.046 50-38.02 61.3-66.746 2.506-6.369 4.612-13.766 6.729-23.631.251-1.171 1.362-2.367 2.468-2.656 1.932-.505 2.011-1.33 2.011-20.981v-20.455l-2.5.478c-2.107.403-2.5.1-2.5-1.932 0-4.131-4.99-19.944-9.014-28.563-12.083-25.883-34.556-48.835-59.486-60.754-9.906-4.737-22.332-8.913-29.878-10.042-3.546-.53-5.012-1.24-5.367-2.597C147.798 1.121 146.443 1 127.383 1 108.254 1 107 1.113 107 2.841m-9.5 18.27c-3.85 1.083-11.53 4.169-17.066 6.857C49.685 42.899 27.79 70.341 19.971 103.75l-.76 3.25H43.588l1.758-5.75C53.2 75.555 75.467 53.175 101.75 44.56l5.25-1.721V30.92c0-8.907-.316-11.902-1.25-11.849-.687.039-4.4.957-8.25 2.04m50.717 9.279.283 11.67 8.241 2.852c24.765 8.57 45.696 28.997 54.269 52.964l3.264 9.124H238.839l-.979-3.75c-7.196-27.557-21.715-49.398-43.469-65.39-11.538-8.481-30.795-16.994-41.88-18.514l-4.577-.627.283 11.671M.423 127.5c.001 11.55.147 16.138.324 10.196.177-5.943.176-15.393-.002-21-.178-5.608-.323-.746-.322 10.804m19.113 23.75c2.863 13.396 10.293 30.453 17.99 41.303 7.143 10.069 6.602 10.288 11.914-4.831l4.681-13.322-3.971-8.213c-2.185-4.517-4.547-10.457-5.25-13.2L43.622 148H18.841l.695 3.25m193.048 2.5c-.98 3.162-3.556 9.328-5.725 13.7l-3.944 7.951 4.687 13.338 4.687 13.338 2.312-2.172c3.156-2.965 10.478-14.065 14.304-21.682 3.238-6.45 8.409-21.199 9.456-26.973l.589-3.25h-24.585l-1.781 5.75M52.355 209.521c7.826 7.604 20.276 16.049 30.291 20.548 5.405 2.428 22.035 7.931 23.966 7.931.213 0 .388-5.565.388-12.366v-12.366l-6.25-2.262c-3.437-1.245-8.314-3.3-10.836-4.568-4.164-2.093-6.422-2.364-24.5-2.942L45.5 202.86l6.855 6.661m116.341-3.579c-1.542.988-6.605 3.087-11.25 4.664L149 213.473v12.264c0 9.795.279 12.263 1.388 12.263 3.666 0 20.082-5.605 28.2-9.628 9.43-4.673 23.38-14.547 29.358-20.779l3.446-3.593-19.946.073c-17.403.064-20.303.302-22.75 1.869" fill="#1976D2" fill-rule="evenodd"/><path fill-opacity=".721" d="M106.82 3.107c-.267 1.757-1.829 2.488-9.378 4.392-40.748 10.273-74.168 41.77-87.384 82.355-1.549 4.755-3.135 10.558-3.525 12.896-.645 3.865-.973 4.25-3.621 4.25H0v40h2.481c1.891 0 2.626.653 3.093 2.75 4.515 20.287 10.219 34.196 20.156 49.15 11.009 16.568 30.929 33.641 49.511 42.436 7.963 3.769 21.492 8.278 27.92 9.306 2.805.448 4.257 1.242 4.588 2.507.451 1.723 1.859 1.851 20.368 1.851 16.373 0 19.883-.247 19.883-1.4 0-.931 2.593-1.974 7.75-3.118 36.681-8.133 67.716-32.201 84.875-65.822 4.101-8.035 9.936-25.113 10.928-31.982.551-3.817 1.191-5.01 3.071-5.725l2.376-.903V106.277l-2.322.444c-2.109.403-2.442-.093-3.623-5.388-5.083-22.811-17.079-44.439-34.023-61.343-16.484-16.444-36.183-27.569-58.234-32.887-8.621-2.079-10.795-2.955-10.796-4.353C148 1.14 146.36 1 127.57 1c-20.01 0-20.437.043-20.75 2.107m-8.797 17.504c-30.45 8.999-55.221 29.704-69.39 58.003C24.829 86.212 19 102.851 19 106.112c0 .488 5.567.888 12.37.888h12.371l2.716-7.75c6.491-18.521 18.645-33.887 35.347-44.692C88.741 50.071 102.318 44 105.417 44 106.78 44 107 42.193 107 31c0-7.15-.112-12.976-.25-12.947-.138.029-4.064 1.181-8.727 2.558M148 30.336v12.427l4.75 1.156c8.211 2 24.272 10.64 32.18 17.312 12.402 10.463 23.607 27.345 27.227 41.019l1.258 4.75H239.038l-.595-2.75c-6.94-32.092-30.11-61.596-60.206-76.662-5.934-2.971-20.817-8.043-26.487-9.028l-3.75-.651v12.427M.422 127c0 11.275.146 15.887.324 10.25.178-5.637.178-14.862 0-20.5S.422 115.725.422 127M19 149.27c0 4.87 4.328 17.734 9.497 28.23 4.964 10.08 15.041 25.296 16.07 24.266.237-.237 2.589-6.486 5.226-13.885l4.794-13.455-3.662-7.186c-2.014-3.952-4.503-10.123-5.531-13.713L43.525 147H31.262C19.18 147 19 147.033 19 149.27m193.127 4.48c-1.137 3.713-3.788 10.108-5.891 14.213l-3.823 7.463 4.793 13.453c2.637 7.398 4.794 13.602 4.794 13.786 0 .184-8.585.335-19.078.335h-19.078l-7.172 3.423c-3.945 1.882-9.773 4.168-12.951 5.079l-5.78 1.657.28 12.67.279 12.671 3-.35c9.533-1.112 29.09-9.44 41-17.46 7.788-5.243 20.39-17.463 26.493-25.69 9.084-12.244 17.758-31.486 19.535-43.337l.699-4.663h-25.032l-2.068 6.75m-164.5 51.5c2.658 3.476 13.331 12.528 19.929 16.901 7.965 5.281 18.168 10.061 28.246 13.235 13.097 4.124 12.306 4.786 11.978-10.012l-.28-12.625-6.5-2.208c-3.575-1.214-8.848-3.408-11.717-4.875-5.112-2.613-5.598-2.666-24.296-2.666h-19.08l1.72 2.25" fill="#1976D2" fill-rule="evenodd"/><path fill-opacity=".96" d="M107.82 3.107c-.267 1.761-1.848 2.493-9.618 4.452-17.766 4.48-34.897 13.306-49.58 25.544C28.483 49.888 13.37 74.521 7.425 100.25 5.713 107.659 5.51 108 2.817 108 .357 108 0 108.378 0 110.986v2.986l31.75.264 31.75.264.28 12.75.28 12.75H0v3.5c0 3.175.263 3.5 2.827 3.5 2.685 0 2.887.322 4.003 6.382 7.882 42.775 41.999 80.53 84.949 94.006 4.553 1.429 10.066 2.883 12.25 3.233 2.988.477 3.971 1.098 3.971 2.507 0 1.473.746 1.872 3.5 1.872h3.5v-64h26v64h3.383c2.463 0 3.517-.508 3.872-1.867.355-1.358 1.818-2.065 5.367-2.592 7.895-1.172 22.215-6.137 31.78-11.019 33.588-17.14 58.676-50.092 65.642-86.218.984-5.1 1.572-6.25 3.326-6.5 1.639-.234 2.198-1.111 2.426-3.804l.296-3.5-32.576.277-32.576.277.28-12.777.28-12.777 32-.5 32-.5.304-3.122c.276-2.835.078-3.078-2.159-2.651-2.283.437-2.548.059-3.636-5.185-7.246-34.901-32.148-67.912-63.545-84.238-12.371-6.432-19.919-9.051-36.714-12.738-1.871-.411-2.75-1.237-2.75-2.585C148 1.384 147.322 1 144.5 1H141v50h-27V1h-2.93c-2.213 0-3.009.516-3.25 2.107M97.234 20.55c-28.955 8.562-54.026 29.232-67.957 56.03C24.65 85.478 19 101.323 19 105.398V108h24.837l2.205-6.75c8.31-25.435 27.443-45.316 52.775-54.84l8.683-3.265.28-12.572c.216-9.715-.011-12.561-1-12.52-.704.029-5 1.153-9.546 2.497M148 30.418v12.419l6.75 2.221c24.908 8.198 44.433 26.016 54.191 49.454 1.706 4.098 3.373 8.81 3.705 10.47l.604 3.018h12.875c14.627 0 13.864.605 11.371-9.015-4.103-15.833-14.65-34.662-26.529-47.361-13.09-13.993-32.301-25.85-50.329-31.062C147.045 16.632 148 15.887 148 30.418m-69.581 96.838c-13.244 37.534-24.044 68.316-24 68.405.045.089 10.431.301 23.081.471l23 .31 2.989-8.721 2.988-8.721h45.197l2.384 8.5 2.384 8.5h22.779c12.529 0 22.766-.338 22.749-.75-.016-.412-10.748-31.125-23.847-68.25l-23.818-67.5-25.902-.244-25.903-.244-24.081 68.244M.232 111c0 1.925.206 2.713.457 1.75.252-.963.252-2.537 0-3.5-.251-.963-.457-.175-.457 1.75m123.391 19.25c-2.003 5.637-3.637 10.588-3.632 11 .005.412 3.609.75 8.009.75s8-.204 8-.452c0-.786-8.134-21.548-8.442-21.548-.161 0-1.932 4.612-3.935 10.25M.252 143.5c.011 2.2.216 2.982.455 1.738.239-1.244.23-3.044-.02-4s-.446.062-.435 2.262m17.751 4.25c.001.412 1.134 4.977 2.519 10.143 3.094 11.552 8.559 23.404 15.303 33.19 7.266 10.543 8.056 11.447 9.054 10.363.48-.52 2.932-6.8 5.45-13.954l4.579-13.008-3.474-6.901c-1.91-3.796-4.408-9.98-5.551-13.742L43.805 147H30.903c-7.097 0-12.902.338-12.9.75m195.657 0c-.251.412-.979 2.775-1.617 5.25s-3.142 8.55-5.564 13.5l-4.404 9 4.81 13.5 4.81 13.5-20.098.5c-18.314.456-20.466.697-24.256 2.724-2.288 1.223-7.463 3.336-11.5 4.694l-7.341 2.471-.28 13.172-.28 13.173 3.756-.705c26.838-5.035 54.856-24.017 70.786-47.959 7.845-11.789 14.472-27.643 16.857-40.32l.611-3.25h-12.916c-7.104 0-13.122.338-13.374.75M45 203.03c0 1.152 11.234 11.423 17.658 16.146 10.922 8.029 29.229 16.305 42.592 19.255l2.75.607V212.365l-5.75-1.78c-3.162-.979-8.45-3.055-11.75-4.614-5.84-2.759-6.525-2.844-25.75-3.22-10.862-.212-19.75-.087-19.75.279" fill="#1976D2" fill-rule="evenodd"/></svg>